<svg width="32" height="32" viewBox="0 0 32 32" fill="none" xmlns="http://www.w3.org/2000/svg">
<circle cx="16" cy="16" r="16" fill="white"/>
<path d="M10 11.3939C10 10.9899 10.1464 10.6566 10.4392 10.3939C10.732 10.1313 11.1126 10 11.5811 10C12.0412 10 12.4134 10.1293 12.6979 10.3879C12.9907 10.6545 13.1371 11.002 13.1371 11.4303C13.1371 11.8182 12.9949 12.1414 12.7104 12.4C12.4176 12.6667 12.0328 12.8 11.556 12.8H11.5434C11.0833 12.8 10.7111 12.6667 10.4266 12.4C10.1422 12.1333 10 11.798 10 11.3939ZM10.1631 22V13.903H12.9488V22H10.1631ZM14.4923 22H17.278V17.4788C17.278 17.196 17.3115 16.9778 17.3784 16.8242C17.4955 16.5495 17.6733 16.3172 17.9117 16.1273C18.1501 15.9374 18.4492 15.8424 18.8089 15.8424C19.7458 15.8424 20.2143 16.4525 20.2143 17.6727V22H23V17.3576C23 16.1616 22.7072 15.2545 22.1216 14.6364C21.536 14.0182 20.7622 13.7091 19.8002 13.7091C18.721 13.7091 17.8803 14.1576 17.278 15.0545V15.0788H17.2654L17.278 15.0545V13.903H14.4923C14.509 14.1616 14.5174 14.9656 14.5174 16.3152C14.5174 17.6646 14.509 19.5596 14.4923 22Z" fill="#2E80CE"/>
</svg>
