<svg width="92" height="92" viewBox="0 0 92 92" fill="none" xmlns="http://www.w3.org/2000/svg">
<g filter="url(#filter0_d_2_206)">
<rect x="16" y="8" width="60" height="60" rx="30" fill="#2E80CE"/>
</g>
<path d="M55.3598 28.6396C52.9506 25.4439 49.2772 25.4319 46.2481 27.1068C46.001 27.2466 45.7219 27.3141 45.4406 27.3022C45.1592 27.2903 44.8863 27.1995 44.6511 27.0393C43.4955 26.2457 42.2904 25.6835 40.139 26.2075C35.6234 27.3071 35 30.9038 35 34.9982C35.0797 38.1602 35.5009 41.3032 36.2555 44.3683C37.1184 48.0168 38.9038 50 40.4335 50C41.9633 50 42.0096 48.2204 42.0096 46.8016C42.0096 45.2009 42.395 40.8009 45.8642 40.8009C48.5317 40.8009 49.3333 44.4013 49.3333 46.8016C49.3329 49.095 50.1722 50 51.6628 50C54.5267 50 55.9796 41.3938 56.3719 39.1237C56.7642 36.8535 57.9882 32.1257 55.3598 28.6396Z" fill="white"/>
<defs>
<filter id="filter0_d_2_206" x="0" y="0" width="92" height="92" filterUnits="userSpaceOnUse" color-interpolation-filters="sRGB">
<feFlood flood-opacity="0" result="BackgroundImageFix"/>
<feColorMatrix in="SourceAlpha" type="matrix" values="0 0 0 0 0 0 0 0 0 0 0 0 0 0 0 0 0 0 127 0" result="hardAlpha"/>
<feOffset dy="8"/>
<feGaussianBlur stdDeviation="8"/>
<feColorMatrix type="matrix" values="0 0 0 0 0.156863 0 0 0 0 0.607843 0 0 0 0 0.870588 0 0 0 0.15 0"/>
<feBlend mode="normal" in2="BackgroundImageFix" result="effect1_dropShadow_2_206"/>
<feBlend mode="normal" in="SourceGraphic" in2="effect1_dropShadow_2_206" result="shape"/>
</filter>
</defs>
</svg>
