<svg width="50" height="29" viewBox="0 0 50 29" fill="none" xmlns="http://www.w3.org/2000/svg">
<path d="M5.14991 14.288C3.84191 14.288 2.82191 14.012 2.08991 13.46C1.36991 12.908 0.991906 12.146 0.955906 11.174H2.89991C2.92391 11.534 3.10991 11.864 3.45791 12.164C3.80591 12.464 4.37591 12.614 5.16791 12.614C5.83991 12.614 6.36791 12.482 6.75191 12.218C7.13591 11.954 7.32791 11.624 7.32791 11.228C7.32791 10.868 7.18391 10.586 6.89591 10.382C6.61991 10.166 6.14591 10.022 5.47391 9.95L4.51991 9.86C3.52391 9.752 2.73191 9.458 2.14391 8.978C1.56791 8.498 1.27991 7.85 1.27991 7.034C1.27991 6.386 1.44191 5.84 1.76591 5.396C2.08991 4.952 2.53391 4.61 3.09791 4.37C3.67391 4.13 4.33391 4.01 5.07791 4.01C6.22991 4.01 7.15991 4.268 7.86791 4.784C8.57591 5.288 8.94191 6.032 8.96591 7.016H7.03991C7.01591 6.644 6.84191 6.332 6.51791 6.08C6.19391 5.828 5.71391 5.702 5.07791 5.702C4.47791 5.702 4.01591 5.822 3.69191 6.062C3.37991 6.302 3.22391 6.608 3.22391 6.98C3.22391 7.316 3.34391 7.58 3.58391 7.772C3.82391 7.964 4.21391 8.09 4.75391 8.15L5.70791 8.24C6.79991 8.36 7.66391 8.666 8.29991 9.158C8.94791 9.638 9.27191 10.31 9.27191 11.174C9.27191 11.798 9.09791 12.344 8.74991 12.812C8.40191 13.28 7.91591 13.646 7.29191 13.91C6.67991 14.162 5.96591 14.288 5.14991 14.288ZM11.5753 14V0.86H13.6813V8.618H13.2493C13.2493 7.658 13.3693 6.836 13.6093 6.152C13.8613 5.456 14.2393 4.928 14.7433 4.568C15.2593 4.196 15.9073 4.01 16.6873 4.01H16.7773C17.9173 4.01 18.7753 4.394 19.3513 5.162C19.9393 5.93 20.2333 7.034 20.2333 8.474V14H18.1273V8.168C18.1273 7.472 17.9233 6.926 17.5153 6.53C17.1193 6.122 16.6033 5.918 15.9673 5.918C15.2833 5.918 14.7313 6.146 14.3113 6.602C13.8913 7.058 13.6813 7.658 13.6813 8.402V14H11.5753ZM23.6273 14V4.298H25.7333V14H23.6273ZM22.2053 5.918V4.298H25.7333V5.918H22.2053ZM24.3113 2.948C23.8793 2.948 23.5553 2.834 23.3393 2.606C23.1353 2.378 23.0333 2.084 23.0333 1.724C23.0333 1.376 23.1353 1.088 23.3393 0.86C23.5553 0.619999 23.8793 0.499999 24.3113 0.499999C24.7553 0.499999 25.0793 0.619999 25.2833 0.86C25.4993 1.088 25.6073 1.376 25.6073 1.724C25.6073 2.084 25.4993 2.378 25.2833 2.606C25.0793 2.834 24.7553 2.948 24.3113 2.948ZM28.8722 14V4.298H30.5462V8.456H30.3482C30.3482 7.496 30.4742 6.686 30.7262 6.026C30.9902 5.366 31.3862 4.868 31.9142 4.532C32.4422 4.184 33.0962 4.01 33.8762 4.01H33.9662C35.1662 4.01 36.0602 4.388 36.6482 5.144C37.2362 5.9 37.5302 7.004 37.5302 8.456V14H35.4242V8.168C35.4242 7.496 35.2322 6.956 34.8482 6.548C34.4642 6.128 33.9362 5.918 33.2642 5.918C32.5802 5.918 32.0282 6.134 31.6082 6.566C31.1882 6.986 30.9782 7.55 30.9782 8.258V14H28.8722ZM44.6862 14.324C43.8462 14.324 43.1142 14.18 42.4902 13.892C41.8662 13.604 41.3562 13.226 40.9602 12.758C40.5642 12.278 40.2642 11.744 40.0602 11.156C39.8682 10.556 39.7722 9.944 39.7722 9.32V8.978C39.7722 8.342 39.8682 7.73 40.0602 7.142C40.2642 6.542 40.5642 6.008 40.9602 5.54C41.3562 5.06 41.8542 4.682 42.4542 4.406C43.0662 4.118 43.7742 3.974 44.5782 3.974C45.6222 3.974 46.4922 4.202 47.1882 4.658C47.8842 5.114 48.4062 5.708 48.7542 6.44C49.1022 7.16 49.2762 7.94 49.2762 8.78V9.626H40.6722V8.204H47.8542L47.2782 8.924C47.2782 8.276 47.1762 7.718 46.9722 7.25C46.7682 6.77 46.4682 6.404 46.0722 6.152C45.6762 5.888 45.1782 5.756 44.5782 5.756C43.9542 5.756 43.4322 5.9 43.0122 6.188C42.5922 6.476 42.2802 6.872 42.0762 7.376C41.8722 7.88 41.7702 8.474 41.7702 9.158C41.7702 9.806 41.8722 10.388 42.0762 10.904C42.2802 11.408 42.5982 11.81 43.0302 12.11C43.4622 12.398 44.0142 12.542 44.6862 12.542C45.3582 12.542 45.9102 12.398 46.3422 12.11C46.7742 11.81 47.0382 11.462 47.1342 11.066H49.0962C48.9642 11.726 48.6942 12.302 48.2862 12.794C47.8902 13.286 47.3862 13.664 46.7742 13.928C46.1622 14.192 45.4662 14.324 44.6862 14.324ZM21.0821 28.18C20.2661 28.18 19.6381 28.004 19.1981 27.652C18.7581 27.292 18.5341 26.812 18.5261 26.212H19.3661C19.3821 26.516 19.5181 26.792 19.7741 27.04C20.0381 27.288 20.4741 27.412 21.0821 27.412C21.6501 27.412 22.0741 27.296 22.3541 27.064C22.6421 26.824 22.7861 26.536 22.7861 26.2C22.7861 25.888 22.6661 25.648 22.4261 25.48C22.1941 25.304 21.8541 25.192 21.4061 25.144L20.6861 25.072C20.1101 25.008 19.6421 24.832 19.2821 24.544C18.9301 24.248 18.7541 23.844 18.7541 23.332C18.7541 22.956 18.8501 22.628 19.0421 22.348C19.2341 22.068 19.5021 21.852 19.8461 21.7C20.1981 21.54 20.6101 21.46 21.0821 21.46C21.7621 21.46 22.3141 21.62 22.7381 21.94C23.1701 22.26 23.3901 22.716 23.3981 23.308H22.5581C22.5501 23.004 22.4221 22.748 22.1741 22.54C21.9261 22.332 21.5621 22.228 21.0821 22.228C20.5861 22.228 20.2141 22.336 19.9661 22.552C19.7261 22.768 19.6061 23.032 19.6061 23.344C19.6061 23.608 19.6981 23.828 19.8821 24.004C20.0661 24.172 20.3541 24.276 20.7461 24.316L21.4661 24.388C22.1061 24.46 22.6261 24.644 23.0261 24.94C23.4341 25.236 23.6381 25.66 23.6381 26.212C23.6381 26.588 23.5301 26.928 23.3141 27.232C23.1061 27.528 22.8101 27.76 22.4261 27.928C22.0421 28.096 21.5941 28.18 21.0821 28.18ZM25.4296 28V21.64H26.1496V24.316H26.0056C26.0056 23.732 26.0856 23.228 26.2456 22.804C26.4136 22.38 26.6616 22.052 26.9896 21.82C27.3176 21.58 27.7336 21.46 28.2376 21.46H28.2736C28.7776 21.46 29.1936 21.576 29.5216 21.808C29.8496 22.04 30.0936 22.368 30.2536 22.792C30.4136 23.216 30.4936 23.724 30.4936 24.316H30.2056C30.2056 23.732 30.2856 23.228 30.4456 22.804C30.6136 22.38 30.8616 22.052 31.1896 21.82C31.5256 21.58 31.9456 21.46 32.4496 21.46H32.4856C32.9896 21.46 33.4056 21.576 33.7336 21.808C34.0696 22.04 34.3176 22.368 34.4776 22.792C34.6456 23.216 34.7296 23.724 34.7296 24.316V28H33.8296V24.112C33.8296 23.552 33.6936 23.108 33.4216 22.78C33.1496 22.452 32.7576 22.288 32.2456 22.288C31.7176 22.288 31.2976 22.46 30.9856 22.804C30.6816 23.14 30.5296 23.596 30.5296 24.172V28H29.6296V24.112C29.6296 23.552 29.4936 23.108 29.2216 22.78C28.9496 22.452 28.5576 22.288 28.0456 22.288C27.5176 22.288 27.0976 22.46 26.7856 22.804C26.4816 23.14 26.3296 23.596 26.3296 24.172V28H25.4296ZM37.3086 28V21.652H38.1966V28H37.3086ZM36.2886 22.372V21.652H38.1966V22.372H36.2886ZM37.5006 20.476C37.2846 20.476 37.1206 20.42 37.0086 20.308C36.9046 20.188 36.8526 20.04 36.8526 19.864C36.8526 19.688 36.9046 19.544 37.0086 19.432C37.1206 19.312 37.2846 19.252 37.5006 19.252C37.7166 19.252 37.8766 19.312 37.9806 19.432C38.0846 19.544 38.1366 19.688 38.1366 19.864C38.1366 20.04 38.0846 20.188 37.9806 20.308C37.8766 20.42 37.7166 20.476 37.5006 20.476ZM40.6185 28V19.24H41.5185V28H40.6185ZM39.6945 19.972V19.24H41.5185V19.972H39.6945ZM46.5035 28.204C45.9595 28.204 45.4875 28.112 45.0875 27.928C44.6875 27.736 44.3595 27.484 44.1035 27.172C43.8475 26.852 43.6555 26.496 43.5275 26.104C43.4075 25.712 43.3475 25.308 43.3475 24.892V24.724C43.3475 24.316 43.4075 23.916 43.5275 23.524C43.6555 23.132 43.8475 22.78 44.1035 22.468C44.3595 22.156 44.6795 21.908 45.0635 21.724C45.4555 21.532 45.9115 21.436 46.4315 21.436C47.0955 21.436 47.6475 21.584 48.0875 21.88C48.5355 22.176 48.8715 22.556 49.0955 23.02C49.3195 23.476 49.4315 23.968 49.4315 24.496V24.964H43.7555V24.268H48.8075L48.5795 24.616C48.5795 24.144 48.4955 23.732 48.3275 23.38C48.1675 23.02 47.9275 22.74 47.6075 22.54C47.2955 22.332 46.9035 22.228 46.4315 22.228C45.9355 22.228 45.5235 22.344 45.1955 22.576C44.8675 22.808 44.6195 23.116 44.4515 23.5C44.2915 23.884 44.2115 24.32 44.2115 24.808C44.2115 25.288 44.2915 25.728 44.4515 26.128C44.6195 26.52 44.8715 26.832 45.2075 27.064C45.5515 27.296 45.9835 27.412 46.5035 27.412C47.0555 27.412 47.5035 27.288 47.8475 27.04C48.1915 26.784 48.4035 26.484 48.4835 26.14H49.3235C49.2435 26.564 49.0755 26.932 48.8195 27.244C48.5635 27.548 48.2395 27.784 47.8475 27.952C47.4555 28.12 47.0075 28.204 46.5035 28.204Z" fill="white"/>
</svg>
