<svg width="32" height="32" viewBox="0 0 32 32" fill="none" xmlns="http://www.w3.org/2000/svg">
<circle cx="16" cy="16" r="16" fill="white"/>
<path d="M24 11.4206C23.405 11.6615 22.771 11.8212 22.11 11.8988C22.79 11.524 23.309 10.9351 23.553 10.2252C22.919 10.5742 22.219 10.8206 21.473 10.9582C20.871 10.3665 20.013 10 19.077 10C17.261 10 15.799 11.3606 15.799 13.0286C15.799 13.2686 15.821 13.4994 15.875 13.7191C13.148 13.5963 10.735 12.3898 9.114 10.552C8.831 11.0052 8.665 11.524 8.665 12.0825C8.665 13.1311 9.25 14.0606 10.122 14.5988C9.595 14.5895 9.078 14.4483 8.64 14.2258C8.64 14.2351 8.64 14.2471 8.64 14.2591C8.64 15.7305 9.777 16.9526 11.268 17.2342C11.001 17.3015 10.71 17.3338 10.408 17.3338C10.198 17.3338 9.986 17.3228 9.787 17.2822C10.212 18.4812 11.418 19.3628 12.852 19.3914C11.736 20.1972 10.319 20.6828 8.785 20.6828C8.516 20.6828 8.258 20.6717 8 20.6412C9.453 21.5062 11.175 22 13.032 22C19.068 22 22.368 17.3846 22.368 13.384C22.368 13.2502 22.363 13.1209 22.356 12.9926C23.007 12.5662 23.554 12.0335 24 11.4206Z" fill="#2E80CE"/>
</svg>
